<svg width="17" height="11" viewBox="0 0 17 11" fill="none" xmlns="http://www.w3.org/2000/svg">
<path d="M6.85938 10.2695C6.81641 10.3477 6.75195 10.3867 6.66602 10.3867C6.5957 10.3867 6.54102 10.3633 6.50195 10.3164C6.46289 10.2734 6.44336 10.2207 6.44336 10.1582C6.44336 10.1504 6.44531 10.0703 6.44922 9.91797C6.45312 9.76172 6.45508 9.55273 6.45508 9.29102C6.45508 8.95898 6.45508 8.60547 6.45508 8.23047C6.45898 7.85547 6.45508 7.47461 6.44336 7.08789C6.43164 6.70117 6.40625 6.31641 6.36719 5.93359C6.32812 5.55078 6.26758 5.18555 6.18555 4.83789C6.10352 4.48633 5.99609 4.16016 5.86328 3.85938C5.73047 3.55859 5.56055 3.29883 5.35352 3.08008C5.14648 2.85742 4.90039 2.68359 4.61523 2.55859C4.33008 2.43359 3.99414 2.37109 3.60742 2.37109C3.22852 2.37109 2.88281 2.4375 2.57031 2.57031C2.25781 2.69922 1.98828 2.875 1.76172 3.09766C1.53906 3.31641 1.36523 3.57422 1.24023 3.87109C1.11914 4.16406 1.05859 4.47461 1.05859 4.80273C1.05859 5.08789 1.10742 5.35156 1.20508 5.59375C1.30664 5.83203 1.44336 6.03906 1.61523 6.21484C1.78711 6.39062 1.98633 6.5293 2.21289 6.63086C2.44336 6.72852 2.6875 6.77734 2.94531 6.77734C3.13672 6.77734 3.3125 6.75195 3.47266 6.70117C3.63281 6.64648 3.76953 6.58789 3.88281 6.52539C3.99609 6.46289 4.08398 6.40625 4.14648 6.35547C4.20898 6.30078 4.24219 6.27344 4.24609 6.27344C4.28906 6.23047 4.3418 6.20898 4.4043 6.20898C4.46289 6.20898 4.51367 6.23047 4.55664 6.27344C4.59961 6.3125 4.62109 6.36133 4.62109 6.41992C4.62109 6.47852 4.59961 6.5293 4.55664 6.57227C4.54883 6.58008 4.50391 6.61914 4.42188 6.68945C4.34375 6.75586 4.23438 6.82812 4.09375 6.90625C3.95312 6.98438 3.78516 7.05469 3.58984 7.11719C3.39844 7.17969 3.18555 7.21094 2.95117 7.21094C2.62695 7.21094 2.32227 7.15039 2.03711 7.0293C1.75586 6.9082 1.50977 6.74023 1.29883 6.52539C1.08789 6.31055 0.919922 6.05664 0.794922 5.76367C0.673828 5.4668 0.613281 5.14648 0.613281 4.80273C0.613281 4.41211 0.6875 4.04297 0.835938 3.69531C0.988281 3.34766 1.19727 3.04492 1.46289 2.78711C1.72852 2.52539 2.04102 2.32031 2.40039 2.17188C2.76367 2.01953 3.1582 1.94336 3.58398 1.94336C4.13477 1.94336 4.59961 2.04297 4.97852 2.24219C5.35742 2.4375 5.66992 2.70117 5.91602 3.0332C6.16602 3.36133 6.35742 3.74219 6.49023 4.17578C6.62695 4.60547 6.72656 5.05469 6.78906 5.52344C6.85156 5.99219 6.88867 6.46484 6.90039 6.94141C6.91211 7.41406 6.91797 7.85938 6.91797 8.27734C6.91797 8.35547 6.91797 8.43945 6.91797 8.5293C6.91797 8.61914 6.91602 8.70898 6.91211 8.79883C6.91211 8.88867 6.91016 8.97461 6.90625 9.05664C6.90625 9.13477 6.90625 9.19922 6.90625 9.25L10.832 1.98438C10.8672 1.91016 10.9297 1.87305 11.0195 1.87305C11.0859 1.87305 11.1387 1.89648 11.1777 1.94336C11.2207 1.98633 11.2422 2.03711 11.2422 2.0957C11.2422 2.11523 11.2305 2.1875 11.207 2.3125C11.1836 2.43359 11.1543 2.5957 11.1191 2.79883C11.0879 3.00195 11.0527 3.23828 11.0137 3.50781C10.9746 3.77344 10.9375 4.06055 10.9023 4.36914C10.8711 4.67773 10.8438 5 10.8203 5.33594C10.7969 5.66797 10.7852 6 10.7852 6.33203C10.7852 6.89062 10.8145 7.38672 10.873 7.82031C10.9316 8.25 11.0273 8.61328 11.1602 8.91016C11.293 9.20703 11.4668 9.43164 11.6816 9.58398C11.9004 9.73633 12.168 9.8125 12.4844 9.8125C12.7695 9.8125 13.041 9.75195 13.2988 9.63086C13.5566 9.50586 13.7969 9.33594 14.0195 9.12109C14.2422 8.90625 14.4492 8.6543 14.6406 8.36523C14.832 8.07617 15.0039 7.76562 15.1562 7.43359C15.3125 7.09766 15.4492 6.75 15.5664 6.39062C15.6875 6.03125 15.7871 5.67383 15.8652 5.31836C15.9473 4.96289 16.0078 4.61719 16.0469 4.28125C16.0898 3.94531 16.1113 3.63672 16.1113 3.35547C16.1113 2.84766 16.0527 2.38086 15.9355 1.95508C15.8223 1.52539 15.6387 1.17578 15.3848 0.90625C15.3457 0.867187 15.3262 0.818359 15.3262 0.759766C15.3262 0.697266 15.3477 0.644531 15.3906 0.601562C15.4375 0.558594 15.4902 0.537109 15.5488 0.537109C15.6152 0.537109 15.668 0.558594 15.707 0.601562C15.8555 0.761719 15.9824 0.943359 16.0879 1.14648C16.1973 1.3457 16.2852 1.56445 16.3516 1.80273C16.4219 2.03711 16.4727 2.28516 16.5039 2.54688C16.5391 2.80859 16.5566 3.08008 16.5566 3.36133C16.5566 3.79102 16.5156 4.25977 16.4336 4.76758C16.3516 5.27148 16.2305 5.7793 16.0703 6.29102C15.9102 6.79883 15.7129 7.29102 15.4785 7.76758C15.248 8.24414 14.9805 8.66602 14.6758 9.0332C14.375 9.39648 14.041 9.68945 13.6738 9.91211C13.3066 10.1309 12.9102 10.2402 12.4844 10.2402C12.082 10.2402 11.7441 10.1504 11.4707 9.9707C11.1973 9.78711 10.9766 9.52539 10.8086 9.18555C10.6445 8.8418 10.5254 8.42578 10.4512 7.9375C10.3809 7.44922 10.3457 6.89844 10.3457 6.28516C10.3457 6.03125 10.3535 5.76953 10.3691 5.5C10.3887 5.23047 10.4102 4.9668 10.4336 4.70898C10.4609 4.45117 10.4883 4.20312 10.5156 3.96484C10.5469 3.72656 10.5762 3.51172 10.6035 3.32031L6.85938 10.2695Z" fill="red"/>
</svg>
